<?xml version="1.0" encoding="UTF-8"?>
<svg enable-background="new 0 0 115.3 122.9" version="1.1" viewBox="0 0 122.9 122.9" xml:space="preserve" xmlns="http://www.w3.org/2000/svg"><path d="m115.3 122.9a7.6 7.6 0 0 0 7.5996-7.5996v-53.85a61.45 61.45 0 0 0-30.725-53.219 61.45 61.45 0 0 0-61.451 0 61.45 61.45 0 0 0-30.725 53.219v53.85a7.6 7.6 0 0 0 7.5996 7.5996 7.6 7.6 0 0 0 7.6016-7.5996v-53.85a46.25 46.25 0 0 1 23.125-40.055 46.25 46.25 0 0 1 46.25 0 46.25 46.25 0 0 1 23.125 40.055v53.85a7.6 7.6 0 0 0 7.5996 7.5996z" stroke-width="0"/></svg>
